<?xml version="1.0" encoding="utf-8"?>
<!-- Generator: Adobe Illustrator 27.8.0, SVG Export Plug-In . SVG Version: 6.00 Build 0)  -->
<svg version="1.1" id="Calque_1" xmlns="http://www.w3.org/2000/svg" xmlns:xlink="http://www.w3.org/1999/xlink" x="0px" y="0px"
	 viewBox="0 0 768 177" style="enable-background:new 0 0 768 177;" xml:space="preserve">
<style type="text/css">
	.st0{fill:none;stroke:#535151;stroke-width:0.812;}
	.st1{fill:#517889;}
	.st2{clip-path:url(#SVGID_00000044176474254244835690000018427679001259982480_);fill:#F18700;}
	.st3{fill:#0090B8;}
	.st4{fill:#535151;}
	.st5{clip-path:url(#SVGID_00000059305609561940435600000018390147644883088281_);fill:#F18700;}
	.st6{clip-path:url(#SVGID_00000042731796419085048850000007993170869056322227_);fill:#F18700;}
	.st7{clip-path:url(#SVGID_00000042731796419085048850000007993170869056322227_);fill:#F9B34B;}
	.st8{clip-path:url(#SVGID_00000042731796419085048850000007993170869056322227_);fill:#4E7889;}
	.st9{clip-path:url(#SVGID_00000042731796419085048850000007993170869056322227_);fill:#0090B8;}
</style>
<line class="st0" x1="554.23" y1="148.65" x2="423.31" y2="148.65"/>
<g>
	<path class="st1" d="M564.34,126.1c-6.01,5.7-9.6,12.78-9.6,21.87c0,8.37,3.88,16.68,9.98,21.87l-0.92,1.18
		c-6.83-5.08-10.9-14.07-10.9-23.05c0-9.7,4.17-17.71,10.52-23.05L564.34,126.1z"/>
</g>
<g>
	<defs>
		<rect id="SVGID_1_" x="-2.31" y="-17.61" width="474.37" height="216.79"/>
	</defs>
	<clipPath id="SVGID_00000093140606222711634500000008182616247285573310_">
		<use xlink:href="#SVGID_1_"  style="overflow:visible;"/>
	</clipPath>
	<path style="clip-path:url(#SVGID_00000093140606222711634500000008182616247285573310_);fill:#F18700;" d="M78.88,40.37
		c1.29,0,2.33-1.11,2.33-2.47c0-1.36-1.04-2.47-2.33-2.47c-1.29,0-2.33,1.11-2.33,2.47C76.55,39.27,77.59,40.37,78.88,40.37"/>
</g>
<g>
	<path class="st3" d="M47.45,26.06c1.81-6.12,1.94-8.09-1.37-9.77l-1.74-0.87c-0.53-0.66-0.2-2.08,0.73-2.16
		c7.15,1.89,13.91,3.85,20.93,6.18c6.94,2.3,12.64,4.77,17.39,8.65c9.88,7.98,12.54,19.82,9.13,31.36
		c-3.29,11.1-11.14,18.96-22.16,21.26c-6.27,1.28-13.38,0.17-19.74-1.94c-5.28-1.75-10.36-4.21-13.25-5.17
		c-3.47-1.15-6.47-2.05-10.4-3.16c-0.42-0.43-0.17-1.88,0.48-2.24l1.98,0.37c5,0.89,5.47-0.1,8.19-9.28L47.45,26.06z M44.98,59.53
		c-1.37,4.63-1.95,7.52-1.17,10.08c1.01,3.31,3.89,5.23,9.09,6.96c16.02,5.32,26.49-3.4,31.3-19.67
		c2.85-9.62,3.28-27.33-18.35-34.51c-4.87-1.62-7.72-1.79-8.54-1.49c-0.82,0.31-1.63,2.44-2.79,6.37L44.98,59.53z"/>
</g>
<g>
	<path class="st4" d="M97.24,97.31c-1.43,8.27-7.45,13.75-15.61,13.75c-9,0-14.65-7.32-14.65-16.09c0-8.77,5.66-16.09,14.65-16.09
		c7.74,0,12.15,4.42,14.06,9.09L80.98,99.65l-3.69-5.11l7.57-6.18c-0.77-0.95-2.14-1.39-3.75-1.39c-3.75,0-6.49,3.6-6.49,8.01
		c0,3.79,2.8,8.01,7.33,8.01c3.81,0,6.97-2.46,7.62-6.56L97.24,97.31z"/>
	<path class="st4" d="M125.3,79.64l-7.45,25.36c-0.89,3.09-2.32,6.06-6.2,6.06s-5.36-2.96-6.2-6.06l-7.03-25.36h8.46l4.83,20.32
		h0.12l4.88-20.32H125.3z"/>
</g>
<g>
	<path class="st1" d="M161.37,97.55c-0.6,1.82-0.52,2.61,0.3,2.61c1.64,0,5.14-3.87,8.57-7.97c0.75-0.08,1.19,0.32,1.19,1.1
		c-1.94,3.95-6.63,10.5-12.82,10.5c-2.24,0-2.91-1.11-2.91-2.37s0.37-2.68,1.64-6.71l11.85-37.34c1.79-5.53,1.04-6.31-0.07-6.87
		l-1.34-0.63c-0.37-0.32-0.37-1.03,0-1.26c1.34-0.55,5.96-2.05,9.39-2.37l0.37,0.47c-0.97,2.84-1.71,5.05-4.4,13.58L161.37,97.55z"
		/>
</g>
<g>
	<path class="st3" d="M134.87,93.54c-1.8,0-1.87,0.15-1.87,1.98c0,7.4,4.08,13.71,11.49,13.71c2.28,0,4.22-0.73,6.37-3.59
		c0.69-0.22,1.18,0.22,1.25,0.88c-2.28,4.98-7.27,6.82-10.86,6.82c-4.5,0-8.03-2.05-10.03-4.84c-2.08-2.86-2.91-6.3-2.91-9.53
		c0-9.01,5.6-16.56,13.91-16.56c5.95,0,9.83,4.32,9.83,8.72c0,1.03-0.14,1.61-0.28,1.91c-0.21,0.44-1.18,0.51-4.08,0.51H134.87z
		 M139.16,91.34c5.12,0,6.64-0.29,7.2-0.73c0.21-0.15,0.42-0.44,0.42-1.39c0-2.05-1.31-4.62-5.33-4.62c-4.08,0-7.61,3.96-7.68,6.38
		c0,0.15,0,0.37,0.48,0.37H139.16z"/>
</g>
<g>
	<path class="st4" d="M298.17,140.34h-6.56v15.52h-1.27v-19.59c0-3.58,2.88-5.21,5.29-5.21h2.54v1.28h-2.54
		c-1.87,0-4.02,1.28-4.02,4.29v2.45h6.56V140.34z"/>
	<path class="st4" d="M299.64,155.86v-16.79h1.27v3.22h0.07c0.74-1.7,2.61-3.22,4.69-3.22h1.47v1.28h-1.34
		c-2.48,0-4.89,2.76-4.89,6.73v8.79H299.64z"/>
	<path class="st4" d="M324.27,147.46c0,4.75-3.48,8.75-8.03,8.75c-4.55,0-8.03-4-8.03-8.75c0-4.75,3.48-8.75,8.03-8.75
		C320.79,138.71,324.27,142.72,324.27,147.46z M309.54,147.46c0,3.9,2.81,7.48,6.69,7.48c3.88,0,6.69-3.58,6.69-7.48
		s-2.81-7.48-6.69-7.48C312.35,139.99,309.54,143.57,309.54,147.46z"/>
	<path class="st4" d="M338.99,155.86V145.8c0-3.51-2.31-5.81-5.09-5.81s-5.09,2.3-5.09,5.81v10.06h-1.27v-10.24
		c0-4.15,2.81-6.91,6.36-6.91c3.55,0,6.36,2.76,6.36,6.91v10.24H338.99z"/>
	<path class="st4" d="M345.54,139.07h5.62v1.28h-5.62v10.84c0,2.13,1.2,3.4,3.08,3.4h2.54v1.28h-2.28c-3.01,0-4.62-1.84-4.62-4.82
		v-16.58h1.27V139.07z"/>
	<path class="st4" d="M355.98,149.84l10.21-7.3c-1.17-1.56-3.01-2.55-5.12-2.55c-4.05,0-6.89,3.58-6.89,7.58
		c0,3.97,2.94,7.37,6.89,7.37c3.85,0,6.89-3.29,6.96-7.12h1.34c-0.1,4.46-3.55,8.4-8.03,8.4c-4.95,0-8.5-3.79-8.5-8.72
		c0-4.75,3.35-8.79,8.23-8.79c3.04,0,5.62,1.67,7.06,4.11l-11.34,8.15L355.98,149.84z"/>
	<path class="st4" d="M383.61,155.86V145.8c0-3.51-2.31-5.81-5.09-5.81s-5.09,2.3-5.09,5.81v10.06h-1.27v-10.24
		c0-4.15,2.81-6.91,6.36-6.91s6.36,2.76,6.36,6.91v10.24H383.61z"/>
	<path class="st4" d="M403.49,131.06v16.4c0,5.07-3.41,8.75-7.73,8.75c-4.32,0-7.73-3.68-7.73-8.75c0-5.07,3.41-8.75,7.73-8.75
		c2.44,0,3.98,1.28,4.95,2.13v1.59c-1.37-1.52-2.84-2.44-4.95-2.44c-3.21,0-6.39,3.15-6.39,7.48c0,4.32,3.18,7.48,6.39,7.48
		c3.81,0,6.46-3.58,6.46-7.48v-16.4H403.49z"/>
</g>
<g>
	<path class="st4" d="M567.35,154.91v-17.1h1.41l11.14,14.85h-0.74v-14.85h1.68v17.1h-1.41l-11.11-14.85h0.74v14.85H567.35z"/>
	<path class="st4" d="M586.58,139.25c-0.34,0-0.62-0.12-0.85-0.37s-0.35-0.54-0.35-0.88c0-0.34,0.12-0.63,0.35-0.87
		s0.51-0.35,0.85-0.35c0.34,0,0.62,0.11,0.85,0.34c0.23,0.23,0.35,0.51,0.35,0.86c0,0.36-0.11,0.66-0.33,0.9
		S586.94,139.25,586.58,139.25z M585.75,154.91v-12.82h1.64v12.82H585.75z"/>
	<path class="st4" d="M596.98,155.03c-1.2,0-2.27-0.28-3.22-0.84s-1.69-1.33-2.22-2.32c-0.54-0.99-0.81-2.11-0.81-3.38
		c0-1.29,0.27-2.42,0.81-3.39c0.54-0.98,1.28-1.74,2.22-2.3s2.02-0.83,3.22-0.83c1.03,0,1.96,0.21,2.79,0.63
		c0.83,0.42,1.48,1.06,1.96,1.91l-1.22,0.88c-0.42-0.65-0.93-1.13-1.54-1.44c-0.62-0.31-1.28-0.46-2.01-0.46
		c-0.86,0-1.64,0.21-2.33,0.62c-0.69,0.42-1.24,1-1.64,1.75s-0.6,1.63-0.6,2.64s0.2,1.89,0.6,2.64s0.95,1.33,1.64,1.75
		c0.69,0.42,1.47,0.62,2.33,0.62c0.72,0,1.39-0.16,2.01-0.46c0.61-0.31,1.13-0.78,1.54-1.42l1.22,0.88
		c-0.48,0.83-1.13,1.46-1.96,1.89C598.94,154.81,598.01,155.03,596.98,155.03z"/>
	<path class="st4" d="M609.87,155.03c-1.17,0-2.22-0.28-3.15-0.84c-0.93-0.56-1.66-1.33-2.2-2.32c-0.54-0.99-0.81-2.11-0.81-3.38
		c0-1.29,0.27-2.42,0.81-3.39c0.54-0.98,1.27-1.74,2.19-2.3c0.92-0.55,1.97-0.83,3.16-0.83c1.2,0,2.26,0.28,3.19,0.83
		c0.93,0.55,1.66,1.32,2.19,2.3c0.53,0.98,0.79,2.11,0.79,3.39c0,1.27-0.26,2.4-0.79,3.38c-0.53,0.98-1.26,1.76-2.2,2.32
		S611.06,155.03,609.87,155.03z M609.87,153.49c0.88,0,1.65-0.21,2.33-0.62s1.21-1,1.6-1.76c0.39-0.76,0.59-1.63,0.59-2.62
		c0-1.01-0.2-1.89-0.59-2.64c-0.39-0.75-0.93-1.33-1.6-1.75s-1.45-0.62-2.31-0.62c-0.86,0-1.63,0.21-2.31,0.62
		c-0.68,0.42-1.21,1-1.61,1.75s-0.6,1.63-0.6,2.64c0,0.99,0.2,1.87,0.6,2.62c0.4,0.76,0.94,1.34,1.61,1.76
		C608.27,153.28,609.03,153.49,609.87,153.49z"/>
	<path class="st4" d="M619.4,154.91v-18.12h1.64v18.12H619.4z"/>
	<path class="st4" d="M629.01,155.03c-0.91,0-1.69-0.16-2.36-0.48s-1.18-0.76-1.53-1.32c-0.35-0.56-0.53-1.21-0.53-1.94
		c0-0.67,0.15-1.27,0.45-1.82s0.79-0.99,1.48-1.32c0.68-0.33,1.6-0.5,2.76-0.5h4.17v1.29h-4.13c-1.17,0-1.98,0.22-2.43,0.66
		s-0.68,0.99-0.68,1.64c0,0.73,0.27,1.32,0.81,1.76c0.54,0.44,1.29,0.66,2.26,0.66c0.92,0,1.72-0.22,2.39-0.67
		c0.67-0.45,1.16-1.09,1.46-1.94l0.37,1.2c-0.31,0.85-0.84,1.52-1.6,2.03S630.17,155.03,629.01,155.03z M633.19,154.91v-2.83
		l-0.07-0.46v-4.74c0-1.09-0.29-1.93-0.86-2.51c-0.58-0.59-1.43-0.88-2.57-0.88c-0.78,0-1.53,0.14-2.24,0.42
		c-0.71,0.28-1.31,0.64-1.8,1.1l-0.74-1.29c0.62-0.55,1.35-0.98,2.21-1.28c0.86-0.3,1.77-0.45,2.72-0.45c1.57,0,2.78,0.41,3.63,1.23
		s1.28,2.07,1.28,3.75v7.96H633.19z"/>
	<path class="st4" d="M642.46,155.03c-1,0-1.95-0.15-2.84-0.45c-0.89-0.3-1.59-0.68-2.1-1.13l0.74-1.37
		c0.49,0.39,1.12,0.73,1.89,1.01c0.77,0.29,1.58,0.43,2.42,0.43c1.15,0,1.98-0.19,2.49-0.57c0.51-0.38,0.76-0.89,0.76-1.53
		c0-0.47-0.14-0.84-0.43-1.11s-0.66-0.47-1.12-0.61s-0.98-0.26-1.54-0.35s-1.13-0.21-1.69-0.34c-0.56-0.13-1.07-0.32-1.53-0.57
		c-0.46-0.25-0.83-0.6-1.12-1.04c-0.28-0.44-0.43-1.03-0.43-1.76c0-0.7,0.18-1.33,0.55-1.88c0.37-0.55,0.91-0.99,1.63-1.31
		c0.71-0.32,1.59-0.48,2.62-0.48c0.78,0,1.57,0.11,2.35,0.33s1.43,0.51,1.94,0.87l-0.71,1.39c-0.54-0.39-1.12-0.67-1.73-0.84
		c-0.62-0.17-1.23-0.26-1.84-0.26c-1.09,0-1.89,0.2-2.41,0.6c-0.51,0.4-0.77,0.91-0.77,1.53c0,0.49,0.14,0.87,0.43,1.15
		c0.28,0.28,0.66,0.49,1.13,0.65c0.47,0.16,0.98,0.28,1.54,0.38s1.12,0.22,1.68,0.35c0.56,0.14,1.08,0.33,1.54,0.56
		c0.47,0.24,0.84,0.57,1.13,1c0.28,0.43,0.43,1,0.43,1.7c0,0.75-0.2,1.4-0.59,1.94c-0.39,0.55-0.96,0.97-1.71,1.27
		C644.42,154.88,643.52,155.03,642.46,155.03z"/>
	<path class="st4" d="M663.85,155.05c-1.21,0-2.34-0.22-3.37-0.65c-1.03-0.43-1.92-1.04-2.67-1.82c-0.75-0.78-1.34-1.7-1.76-2.76
		c-0.42-1.06-0.63-2.21-0.63-3.47c0-1.25,0.21-2.41,0.63-3.47c0.42-1.06,1.01-1.98,1.78-2.76s1.66-1.39,2.69-1.82
		c1.03-0.43,2.15-0.65,3.37-0.65c1.17,0,2.27,0.21,3.3,0.62c1.03,0.42,1.9,1.04,2.61,1.87l-1.08,1.15
		c-0.66-0.72-1.39-1.23-2.19-1.55c-0.8-0.32-1.66-0.48-2.58-0.48c-0.97,0-1.87,0.17-2.7,0.53c-0.83,0.35-1.55,0.85-2.17,1.49
		c-0.61,0.64-1.09,1.39-1.44,2.25s-0.52,1.79-0.52,2.82c0,1.03,0.17,1.97,0.52,2.82c0.35,0.85,0.83,1.6,1.44,2.25
		c0.62,0.64,1.34,1.14,2.17,1.49c0.83,0.35,1.73,0.53,2.7,0.53c0.92,0,1.78-0.16,2.58-0.49c0.8-0.33,1.53-0.85,2.19-1.56l1.08,1.15
		c-0.71,0.83-1.58,1.46-2.61,1.88C666.14,154.84,665.04,155.05,663.85,155.05z"/>
	<path class="st4" d="M679.26,141.96c0.98,0,1.85,0.2,2.59,0.6c0.75,0.4,1.33,1.01,1.75,1.82c0.42,0.81,0.63,1.84,0.63,3.08v7.45
		h-1.64v-7.28c0-1.35-0.32-2.37-0.96-3.07c-0.64-0.69-1.53-1.04-2.69-1.04c-0.86,0-1.61,0.18-2.25,0.55s-1.13,0.9-1.48,1.59
		c-0.35,0.69-0.52,1.53-0.52,2.5v6.74h-1.64v-18.12h1.64v8.82l-0.32-0.66c0.38-0.93,1-1.66,1.84-2.19S678.09,141.96,679.26,141.96z"
		/>
	<path class="st4" d="M693.8,155.03c-1.26,0-2.37-0.28-3.32-0.84s-1.7-1.33-2.24-2.32c-0.54-0.99-0.81-2.11-0.81-3.38
		s0.26-2.39,0.77-3.37s1.22-1.75,2.12-2.31c0.9-0.56,1.91-0.84,3.03-0.84c1.14,0,2.15,0.27,3.03,0.82c0.88,0.54,1.58,1.31,2.09,2.29
		c0.51,0.99,0.76,2.12,0.76,3.41c0,0.08,0,0.17-0.01,0.26c-0.01,0.09-0.01,0.18-0.01,0.28h-10.54v-1.29h9.66l-0.65,0.51
		c0-0.93-0.19-1.75-0.56-2.48c-0.38-0.72-0.89-1.29-1.53-1.7c-0.65-0.41-1.39-0.61-2.24-0.61c-0.83,0-1.58,0.2-2.24,0.61
		c-0.66,0.41-1.18,0.98-1.54,1.71s-0.55,1.57-0.55,2.52v0.27c0,0.98,0.2,1.84,0.61,2.58c0.41,0.74,0.98,1.32,1.71,1.73
		s1.56,0.62,2.5,0.62c0.74,0,1.43-0.14,2.06-0.42c0.64-0.28,1.19-0.7,1.65-1.27l0.92,1.12c-0.54,0.68-1.21,1.21-2.02,1.56
		C695.66,154.85,694.77,155.03,693.8,155.03z"/>
	<path class="st4" d="M705.7,154.91l-5.37-12.82h1.71l4.93,11.89h-0.81l5-11.89h1.61l-5.4,12.82H705.7z"/>
	<path class="st4" d="M718.5,155.03c-0.91,0-1.69-0.16-2.36-0.48s-1.18-0.76-1.53-1.32c-0.35-0.56-0.53-1.21-0.53-1.94
		c0-0.67,0.15-1.27,0.45-1.82s0.79-0.99,1.48-1.32c0.68-0.33,1.6-0.5,2.76-0.5h4.17v1.29h-4.13c-1.17,0-1.98,0.22-2.43,0.66
		s-0.68,0.99-0.68,1.64c0,0.73,0.27,1.32,0.81,1.76c0.54,0.44,1.29,0.66,2.26,0.66c0.92,0,1.72-0.22,2.39-0.67
		c0.67-0.45,1.16-1.09,1.46-1.94l0.37,1.2c-0.31,0.85-0.84,1.52-1.6,2.03S719.65,155.03,718.5,155.03z M722.67,154.91v-2.83
		l-0.07-0.46v-4.74c0-1.09-0.29-1.93-0.86-2.51c-0.58-0.59-1.43-0.88-2.57-0.88c-0.78,0-1.53,0.14-2.24,0.42
		c-0.71,0.28-1.31,0.64-1.8,1.1l-0.74-1.29c0.62-0.55,1.35-0.98,2.21-1.28c0.86-0.3,1.77-0.45,2.72-0.45c1.57,0,2.78,0.41,3.63,1.23
		s1.28,2.07,1.28,3.75v7.96H722.67z"/>
	<path class="st4" d="M728.69,154.91v-18.12h1.64v18.12H728.69z"/>
	<path class="st4" d="M735.72,139.25c-0.34,0-0.62-0.12-0.85-0.37s-0.35-0.54-0.35-0.88c0-0.34,0.12-0.63,0.35-0.87
		s0.51-0.35,0.85-0.35c0.34,0,0.62,0.11,0.85,0.34c0.23,0.23,0.35,0.51,0.35,0.86c0,0.36-0.11,0.66-0.33,0.9
		S736.08,139.25,735.72,139.25z M734.89,154.91v-12.82h1.64v12.82H734.89z"/>
	<path class="st4" d="M746.24,155.03c-1.26,0-2.37-0.28-3.32-0.84s-1.7-1.33-2.24-2.32c-0.54-0.99-0.81-2.11-0.81-3.38
		s0.26-2.39,0.77-3.37s1.22-1.75,2.12-2.31c0.9-0.56,1.91-0.84,3.03-0.84c1.14,0,2.15,0.27,3.03,0.82c0.88,0.54,1.58,1.31,2.09,2.29
		c0.51,0.99,0.76,2.12,0.76,3.41c0,0.08,0,0.17-0.01,0.26c-0.01,0.09-0.01,0.18-0.01,0.28h-10.54v-1.29h9.66l-0.65,0.51
		c0-0.93-0.19-1.75-0.56-2.48c-0.38-0.72-0.89-1.29-1.53-1.7c-0.65-0.41-1.39-0.61-2.24-0.61c-0.83,0-1.58,0.2-2.24,0.61
		c-0.66,0.41-1.18,0.98-1.54,1.71s-0.55,1.57-0.55,2.52v0.27c0,0.98,0.2,1.84,0.61,2.58c0.41,0.74,0.98,1.32,1.71,1.73
		s1.56,0.62,2.5,0.62c0.74,0,1.43-0.14,2.06-0.42c0.64-0.28,1.19-0.7,1.65-1.27l0.92,1.12c-0.54,0.68-1.21,1.21-2.02,1.56
		C748.09,154.85,747.21,155.03,746.24,155.03z"/>
	<path class="st4" d="M755.02,154.91v-12.82h1.57v3.49l-0.16-0.61c0.34-0.98,0.91-1.72,1.71-2.23c0.8-0.51,1.79-0.77,2.97-0.77v1.68
		c-0.06,0-0.12,0-0.18-0.01s-0.12-0.01-0.18-0.01c-1.28,0-2.28,0.41-3,1.23c-0.72,0.82-1.08,1.99-1.08,3.5v6.54H755.02z"/>
</g>
<g>
	<path class="st4" d="M204.03,94.98c0,8.77-5.66,16.09-14.65,16.09s-14.65-7.32-14.65-16.09c0-8.77,5.66-16.09,14.65-16.09
		S204.03,86.21,204.03,94.98z M182.34,94.98c0,5.11,2.8,8.01,7.03,8.01s7.03-2.9,7.03-8.01c0-5.11-2.8-8.01-7.03-8.01
		S182.34,89.87,182.34,94.98z"/>
	<path class="st4" d="M208.68,123.94v-28.9c0-8.96,5.84-16.15,14.3-16.15c8.34,0,14.18,7.19,14.18,16.15
		c0,8.27-5.66,16.03-13.82,16.03c-1.55,0-3.1-0.44-4.59-0.88v-8.52c1.19,0.57,2.44,0.95,4.11,0.95c3.87,0,6.67-3.16,6.67-7.63
		c0-4.48-2.8-7.64-6.43-7.64c-3.99,0-6.79,3.15-6.79,7.64v28.96H208.68z"/>
</g>
<g>
	<path class="st3" d="M243.03,98.24c0-2.86,0-3.23-1.87-4.54l-0.62-0.44c-0.28-0.29-0.28-1.1,0.07-1.32
		c1.8-0.81,5.05-2.56,6.85-3.96c0.42,0,0.69,0.15,0.83,0.51c-0.14,1.32-0.28,2.42-0.28,3.37c0,0.51,0.14,0.95,0.62,0.95
		c0.9-0.44,5.26-3.44,9.69-3.44c6.99,0,11.49,6.01,11.49,13.41c0,10.19-7.06,17.52-16.88,17.52c-1.25,0-3.18-0.15-3.81-0.29
		c-0.62,0.15-0.97,0.51-0.97,2.05v7.7c0,5.2,0.14,5.86,2.63,6.23l2.7,0.37c0.48,0.37,0.35,1.61-0.14,1.83
		c-3.32-0.15-5.33-0.22-7.75-0.22c-2.49,0-4.57,0.07-6.5,0.22c-0.48-0.22-0.62-1.47-0.14-1.83l1.45-0.22
		c2.56-0.37,2.63-1.1,2.63-6.38V98.24z M248.16,111.87c0,2.35,0.69,3.22,2.08,4.4c1.38,1.1,3.53,1.61,4.98,1.61
		c5.67,0,9-5.57,9-13.19c0-5.86-3.11-11.8-9.34-11.8c-2.98,0-5.12,1.17-5.88,2.05c-0.62,0.81-0.83,1.91-0.83,4.32V111.87z"/>
	<path class="st3" d="M281.23,100.51c-1.8,0-1.87,0.15-1.87,1.98c0,7.4,4.08,13.71,11.49,13.71c2.28,0,4.22-0.73,6.37-3.59
		c0.69-0.22,1.18,0.22,1.25,0.88c-2.28,4.98-7.27,6.82-10.86,6.82c-4.5,0-8.03-2.05-10.03-4.84c-2.08-2.86-2.91-6.3-2.91-9.53
		c0-9.01,5.6-16.56,13.91-16.56c5.95,0,9.83,4.32,9.83,8.72c0,1.03-0.14,1.61-0.28,1.91c-0.21,0.44-1.18,0.51-4.08,0.51H281.23z
		 M285.52,98.31c5.12,0,6.64-0.29,7.2-0.73c0.21-0.15,0.42-0.44,0.42-1.39c0-2.05-1.31-4.62-5.33-4.62c-4.08,0-7.61,3.96-7.68,6.38
		c0,0.15,0,0.37,0.48,0.37H285.52z"/>
	<path class="st3" d="M310.64,108.5c0,5.06,1.18,8.43,6.44,8.43c1.87,0,4.08-0.81,5.6-2.2c0.9-0.88,1.38-1.98,1.38-4.25V98.46
		c0-4.76-0.48-4.91-2.56-5.79l-0.9-0.37c-0.48-0.29-0.48-1.32,0.07-1.61c2.77-0.07,6.57-0.59,8.1-1.32
		c0.35,0.07,0.55,0.22,0.62,0.51c-0.14,1.39-0.21,3.66-0.21,6.38v12.31c0,5.79,0.21,7.99,2.15,7.99c0.83,0,1.73-0.15,2.7-0.37
		c0.42,0.37,0.48,1.83-0.07,2.12c-2.7,0.59-6.71,1.32-9.07,2.71c-0.35,0-0.69-0.22-0.83-0.51v-3c0-0.66-0.21-1.03-0.62-1.03
		c-2.08,1.39-5.47,3.81-9.55,3.81c-6.09,0-8.37-3.22-8.37-9.16V98.9c0-4.62,0-5.28-2.08-6.23l-0.83-0.37
		c-0.42-0.37-0.35-1.39,0.14-1.61c3.18-0.07,5.88-0.73,7.4-1.32c0.42,0.07,0.62,0.22,0.69,0.51c-0.14,1.25-0.21,2.79-0.21,6.38
		V108.5z"/>
	<path class="st3" d="M341.85,98.24c0-2.86,0-3.23-1.87-4.54l-0.62-0.44c-0.28-0.29-0.28-1.1,0.07-1.32
		c1.59-0.59,5.26-2.49,6.99-3.59c0.35,0.07,0.55,0.22,0.55,0.51v4.25c0,0.37,0.07,0.59,0.21,0.66c2.42-2.12,5.05-4.4,7.61-4.4
		c1.73,0,3.11,1.17,3.11,2.93c0,2.42-1.87,3.37-2.98,3.37c-0.69,0-1.04-0.22-1.52-0.51c-1.04-0.73-2.08-1.17-3.04-1.17
		c-1.11,0-1.94,0.66-2.49,1.47c-0.69,1.03-0.9,3.15-0.9,5.64v9.97c0,5.28,0.14,6.16,2.77,6.38l2.49,0.22
		c0.48,0.37,0.35,1.61-0.14,1.83c-3.25-0.15-5.26-0.22-7.68-0.22c-2.49,0-4.57,0.07-6.37,0.22c-0.48-0.22-0.62-1.47-0.14-1.83
		l1.31-0.22c2.56-0.44,2.63-1.1,2.63-6.38V98.24z"/>
</g>
<g>
	<defs>
		<path id="SVGID_00000142861164968724868780000016515490278695768222_" d="M423.31,155.1L423.31,155.1c3.31,0,6-2.68,6-6v-0.9
			c0-3.31-2.68-6-6-6h0c-3.31,0-6,2.68-6,6v0.9C417.31,152.41,420,155.1,423.31,155.1z"/>
	</defs>
	<clipPath id="SVGID_00000162347227491097808050000006454739471780506556_">
		<use xlink:href="#SVGID_00000142861164968724868780000016515490278695768222_"  style="overflow:visible;"/>
	</clipPath>
	<path style="clip-path:url(#SVGID_00000162347227491097808050000006454739471780506556_);fill:#F18700;" d="M423.31,155.1
		c3.31,0,6-2.89,6-6.45s-2.68-6.45-6-6.45s-6,2.89-6,6.45S420,155.1,423.31,155.1"/>
</g>
<g>
	<defs>
		<rect id="SVGID_00000072248526134214638520000008452861552140965044_" x="631.59" y="45.15" width="120.97" height="70.9"/>
	</defs>
	<clipPath id="SVGID_00000040550060894960739190000003658303159845781412_">
		<use xlink:href="#SVGID_00000072248526134214638520000008452861552140965044_"  style="overflow:visible;"/>
	</clipPath>
	<path style="clip-path:url(#SVGID_00000040550060894960739190000003658303159845781412_);fill:#F18700;" d="M637.29,85.87
		c3.15,0,5.7-2.55,5.7-5.7c0-3.15-2.55-5.7-5.7-5.7c-3.15,0-5.7,2.55-5.7,5.7C631.59,83.32,634.15,85.87,637.29,85.87"/>
	<path style="clip-path:url(#SVGID_00000040550060894960739190000003658303159845781412_);fill:#F9B34B;" d="M710.93,56.55
		c3.15,0,5.7-2.55,5.7-5.7c0-3.15-2.55-5.7-5.7-5.7s-5.7,2.55-5.7,5.7C705.23,54,707.78,56.55,710.93,56.55"/>
	<path style="clip-path:url(#SVGID_00000040550060894960739190000003658303159845781412_);fill:#4E7889;" d="M734.6,116.04
		c9.92,0,17.97-8.04,17.97-17.97s-8.04-17.97-17.97-17.97c-9.92,0-17.97,8.04-17.97,17.97S724.68,116.04,734.6,116.04"/>
	<path style="clip-path:url(#SVGID_00000040550060894960739190000003658303159845781412_);fill:#0090B8;" d="M687.36,90.85
		c6.27,0,11.35-5.08,11.35-11.35c0-6.27-5.08-11.36-11.35-11.36S676,73.22,676,79.49C676,85.76,681.09,90.85,687.36,90.85"/>
</g>
<circle class="st1" cx="24.5" cy="85.5" r="15.5"/>
</svg>
