<?xml version="1.0" encoding="utf-8"?>
<!-- Generator: Adobe Illustrator 27.8.0, SVG Export Plug-In . SVG Version: 6.00 Build 0)  -->
<svg version="1.1" id="Calque_1" xmlns="http://www.w3.org/2000/svg" xmlns:xlink="http://www.w3.org/1999/xlink" x="0px" y="0px"
	 viewBox="0 0 768 134" style="enable-background:new 0 0 768 134;" xml:space="preserve">
<style type="text/css">
	.st0{fill:none;stroke:#535151;stroke-width:0.812;}
	.st1{fill:#517889;}
	.st2{clip-path:url(#SVGID_00000008848847996559112000000014167841746795220922_);fill:#F18700;}
	.st3{fill:#0090B8;}
	.st4{fill:#535151;}
	.st5{clip-path:url(#SVGID_00000072243906918454271950000016368604479724936579_);fill:#F18700;}
	.st6{clip-path:url(#SVGID_00000107584890884018633180000017809815001057881484_);fill:#F18700;}
	.st7{clip-path:url(#SVGID_00000107584890884018633180000017809815001057881484_);fill:#F9B34B;}
	.st8{clip-path:url(#SVGID_00000107584890884018633180000017809815001057881484_);fill:#4E7889;}
	.st9{clip-path:url(#SVGID_00000107584890884018633180000017809815001057881484_);fill:#0090B8;}
</style>
<line class="st0" x1="564.32" y1="105.04" x2="447.93" y2="105.04"/>
<g>
	<path class="st1" d="M573.3,84.99c-5.34,5.07-8.53,11.36-8.53,19.44c0,7.44,3.45,14.83,8.88,19.44l-0.82,1.05
		c-6.08-4.52-9.7-12.51-9.7-20.49c0-8.63,3.71-15.75,9.35-20.49L573.3,84.99z"/>
</g>
<g>
	<defs>
		<rect id="SVGID_1_" x="-11.31" y="-12.54" width="421.69" height="192.72"/>
	</defs>
	<clipPath id="SVGID_00000173881817977946545310000003739255824843142318_">
		<use xlink:href="#SVGID_1_"  style="overflow:visible;"/>
	</clipPath>
	<path style="clip-path:url(#SVGID_00000173881817977946545310000003739255824843142318_);fill:#F18700;" d="M60.87,39.01
		c1.15,0,2.07-0.98,2.07-2.2c0-1.21-0.93-2.2-2.07-2.2c-1.15,0-2.07,0.98-2.07,2.2C58.79,38.03,59.72,39.01,60.87,39.01"/>
</g>
<g>
	<path class="st3" d="M40.91,27.17c1.61-5.44,1.73-7.19-1.22-8.68l-1.55-0.77c-0.47-0.58-0.18-1.85,0.65-1.92
		c6.35,1.68,12.37,3.42,18.61,5.49c6.17,2.05,11.24,4.24,15.46,7.69c8.78,7.1,11.15,17.61,8.11,27.87
		c-2.92,9.87-9.91,16.86-19.7,18.9c-5.58,1.14-11.89,0.15-17.54-1.73c-4.7-1.56-9.21-3.74-11.78-4.59
		c-3.08-1.02-5.75-1.82-9.24-2.81c-0.37-0.38-0.15-1.67,0.43-1.99l1.76,0.33c4.44,0.79,4.86-0.09,7.28-8.25L40.91,27.17z
		 M38.72,56.91c-1.22,4.12-1.73,6.68-1.04,8.96c0.9,2.95,3.46,4.65,8.08,6.18C60,76.78,69.31,69.03,73.59,54.57
		c2.53-8.55,2.92-24.3-16.31-30.68c-4.33-1.44-6.86-1.6-7.59-1.32c-0.73,0.27-1.45,2.17-2.48,5.66L38.72,56.91z"/>
</g>
<g>
	<path class="st4" d="M85.19,90.51c-1.27,7.35-6.62,12.23-13.88,12.23c-8,0-13.03-6.51-13.03-14.3s5.03-14.3,13.03-14.3
		c6.89,0,10.8,3.93,12.5,8.08L70.73,92.59l-3.28-4.54l6.73-5.5c-0.69-0.84-1.91-1.23-3.34-1.23c-3.34,0-5.77,3.2-5.77,7.12
		c0,3.37,2.49,7.12,6.51,7.12c3.39,0,6.2-2.19,6.78-5.83L85.19,90.51z"/>
	<path class="st4" d="M110.14,74.81l-6.62,22.55c-0.79,2.75-2.07,5.38-5.51,5.38c-3.44,0-4.77-2.64-5.51-5.38l-6.25-22.55h7.52
		l4.29,18.06h0.11l4.34-18.06H110.14z"/>
</g>
<g>
	<path class="st1" d="M142.19,90.73c-0.53,1.61-0.46,2.32,0.26,2.32c1.46,0,4.57-3.44,7.62-7.09c0.66-0.07,1.06,0.28,1.06,0.98
		c-1.72,3.51-5.9,9.33-11.4,9.33c-1.99,0-2.58-0.98-2.58-2.1c0-1.12,0.33-2.39,1.46-5.96l10.53-33.19c1.59-4.91,0.93-5.61-0.07-6.1
		l-1.19-0.56c-0.33-0.28-0.33-0.91,0-1.12c1.19-0.49,5.3-1.82,8.35-2.1l0.33,0.42c-0.86,2.53-1.52,4.49-3.91,12.07L142.19,90.73z"/>
</g>
<g>
	<path class="st3" d="M118.63,87.16c-1.6,0-1.66,0.13-1.66,1.76c0,6.58,3.63,12.18,10.21,12.18c2.03,0,3.75-0.65,5.66-3.19
		c0.61-0.2,1.05,0.2,1.11,0.78c-2.03,4.43-6.46,6.06-9.66,6.06c-4,0-7.13-1.82-8.92-4.3c-1.85-2.54-2.58-5.6-2.58-8.47
		c0-8.01,4.98-14.72,12.36-14.72c5.29,0,8.73,3.84,8.73,7.75c0,0.91-0.12,1.43-0.25,1.69c-0.18,0.39-1.05,0.46-3.63,0.46H118.63z
		 M122.44,85.21c4.55,0,5.9-0.26,6.4-0.65c0.18-0.13,0.37-0.39,0.37-1.24c0-1.83-1.17-4.11-4.74-4.11c-3.63,0-6.77,3.52-6.83,5.67
		c0,0.13,0,0.33,0.43,0.33H122.44z"/>
</g>
<g>
	<path class="st4" d="M336.69,97.65h-5.83v13.79h-1.13V94.03c0-3.18,2.56-4.63,4.7-4.63h2.26v1.13h-2.26
		c-1.67,0-3.57,1.13-3.57,3.81v2.17h5.83V97.65z"/>
	<path class="st4" d="M338,111.45V96.52h1.13v2.87h0.06c0.65-1.51,2.32-2.87,4.16-2.87h1.31v1.13h-1.19c-2.2,0-4.34,2.46-4.34,5.98
		v7.81H338z"/>
	<path class="st4" d="M359.89,103.99c0,4.22-3.09,7.78-7.14,7.78s-7.14-3.56-7.14-7.78c0-4.22,3.09-7.78,7.14-7.78
		S359.89,99.76,359.89,103.99z M346.8,103.99c0,3.46,2.5,6.65,5.95,6.65s5.95-3.18,5.95-6.65c0-3.46-2.5-6.65-5.95-6.65
		S346.8,100.52,346.8,103.99z"/>
	<path class="st4" d="M372.97,111.45v-8.94c0-3.12-2.05-5.17-4.52-5.17c-2.47,0-4.52,2.05-4.52,5.17v8.94h-1.13v-9.1
		c0-3.69,2.5-6.14,5.65-6.14c3.15,0,5.65,2.46,5.65,6.14v9.1H372.97z"/>
	<path class="st4" d="M378.8,96.52h5v1.13h-5v9.64c0,1.89,1.07,3.02,2.74,3.02h2.26v1.13h-2.02c-2.68,0-4.1-1.64-4.1-4.28V92.43
		h1.13V96.52z"/>
	<path class="st4" d="M388.08,106.1l9.07-6.49c-1.04-1.39-2.68-2.27-4.55-2.27c-3.6,0-6.13,3.18-6.13,6.74
		c0,3.53,2.62,6.55,6.13,6.55c3.42,0,6.13-2.93,6.19-6.33h1.19c-0.09,3.97-3.15,7.46-7.14,7.46c-4.4,0-7.55-3.37-7.55-7.75
		c0-4.22,2.97-7.81,7.32-7.81c2.71,0,5,1.48,6.27,3.65l-10.08,7.24L388.08,106.1z"/>
	<path class="st4" d="M412.65,111.45v-8.94c0-3.12-2.05-5.17-4.52-5.17c-2.47,0-4.52,2.05-4.52,5.17v8.94h-1.13v-9.1
		c0-3.69,2.5-6.14,5.65-6.14s5.65,2.46,5.65,6.14v9.1H412.65z"/>
	<path class="st4" d="M430.31,89.4v14.58c0,4.5-3.03,7.78-6.87,7.78c-3.84,0-6.87-3.28-6.87-7.78c0-4.5,3.03-7.78,6.87-7.78
		c2.17,0,3.54,1.13,4.4,1.89v1.42c-1.22-1.35-2.53-2.17-4.4-2.17c-2.85,0-5.68,2.8-5.68,6.65c0,3.84,2.83,6.65,5.68,6.65
		c3.39,0,5.74-3.18,5.74-6.65V89.4H430.31z"/>
</g>
<g>
	<path class="st4" d="M575.98,110.6v-15.2h1.25l9.9,13.2h-0.66v-13.2h1.5v15.2h-1.25l-9.88-13.2h0.66v13.2H575.98z"/>
	<path class="st4" d="M593.08,96.69c-0.3,0-0.55-0.11-0.76-0.33c-0.21-0.22-0.31-0.48-0.31-0.78c0-0.3,0.1-0.56,0.31-0.77
		c0.21-0.21,0.46-0.31,0.76-0.31c0.3,0,0.55,0.1,0.76,0.3c0.21,0.2,0.31,0.46,0.31,0.76c0,0.32-0.1,0.59-0.3,0.8
		C593.65,96.58,593.39,96.69,593.08,96.69z M592.34,110.6V99.2h1.46v11.4H592.34z"/>
	<path class="st4" d="M602.32,110.71c-1.07,0-2.02-0.25-2.86-0.75c-0.84-0.5-1.5-1.19-1.98-2.06c-0.48-0.88-0.72-1.88-0.72-3.01
		c0-1.14,0.24-2.15,0.72-3.02c0.48-0.87,1.14-1.55,1.98-2.04c0.84-0.49,1.79-0.74,2.86-0.74c0.92,0,1.74,0.19,2.48,0.56
		c0.74,0.38,1.32,0.94,1.74,1.69l-1.09,0.78c-0.37-0.58-0.83-1.01-1.37-1.28c-0.55-0.27-1.14-0.41-1.78-0.41
		c-0.77,0-1.46,0.18-2.07,0.55c-0.62,0.37-1.1,0.89-1.46,1.55c-0.36,0.67-0.53,1.45-0.53,2.34c0,0.9,0.18,1.68,0.53,2.34
		c0.36,0.67,0.84,1.18,1.46,1.55c0.61,0.37,1.3,0.55,2.07,0.55c0.64,0,1.24-0.14,1.78-0.41c0.55-0.27,1-0.69,1.37-1.26l1.09,0.78
		c-0.42,0.74-1,1.3-1.74,1.68C604.06,110.52,603.24,110.71,602.32,110.71z"/>
	<path class="st4" d="M613.78,110.71c-1.04,0-1.97-0.25-2.8-0.75c-0.83-0.5-1.48-1.19-1.96-2.06c-0.48-0.88-0.72-1.88-0.72-3.01
		c0-1.14,0.24-2.15,0.72-3.02c0.48-0.87,1.13-1.55,1.95-2.04c0.82-0.49,1.76-0.74,2.81-0.74c1.07,0,2.01,0.25,2.84,0.74
		c0.83,0.49,1.48,1.17,1.95,2.04c0.47,0.87,0.71,1.88,0.71,3.02c0,1.13-0.24,2.13-0.71,3.01c-0.47,0.88-1.12,1.56-1.96,2.06
		C615.77,110.46,614.83,110.71,613.78,110.71z M613.78,109.34c0.78,0,1.47-0.18,2.07-0.55c0.6-0.37,1.08-0.89,1.42-1.56
		c0.35-0.67,0.52-1.45,0.52-2.33c0-0.9-0.17-1.68-0.52-2.34c-0.35-0.67-0.82-1.18-1.42-1.55c-0.6-0.37-1.29-0.55-2.05-0.55
		c-0.77,0-1.45,0.18-2.05,0.55c-0.6,0.37-1.08,0.89-1.44,1.55c-0.36,0.67-0.53,1.45-0.53,2.34c0,0.88,0.18,1.66,0.53,2.33
		s0.83,1.19,1.44,1.56C612.35,109.16,613.03,109.34,613.78,109.34z"/>
	<path class="st4" d="M622.24,110.6V94.49h1.46v16.11H622.24z"/>
	<path class="st4" d="M630.79,110.71c-0.81,0-1.51-0.14-2.1-0.42s-1.05-0.67-1.36-1.17c-0.31-0.5-0.47-1.07-0.47-1.73
		c0-0.59,0.13-1.13,0.4-1.62c0.27-0.49,0.7-0.88,1.31-1.17c0.61-0.3,1.42-0.44,2.45-0.44h3.71v1.15h-3.67
		c-1.04,0-1.76,0.2-2.16,0.59c-0.4,0.39-0.6,0.88-0.6,1.45c0,0.65,0.24,1.17,0.72,1.56s1.15,0.59,2.01,0.59
		c0.82,0,1.53-0.2,2.12-0.6c0.59-0.4,1.03-0.97,1.3-1.73l0.33,1.06c-0.27,0.75-0.75,1.35-1.42,1.8
		C632.67,110.49,631.82,110.71,630.79,110.71z M634.5,110.6v-2.52l-0.06-0.41v-4.21c0-0.97-0.26-1.71-0.77-2.24
		c-0.51-0.52-1.27-0.78-2.29-0.78c-0.7,0-1.36,0.12-1.99,0.37s-1.16,0.57-1.6,0.98l-0.66-1.15c0.55-0.49,1.2-0.87,1.97-1.14
		s1.57-0.4,2.42-0.4c1.39,0,2.47,0.37,3.23,1.1c0.76,0.73,1.14,1.84,1.14,3.33v7.08H634.5z"/>
	<path class="st4" d="M642.74,110.71c-0.89,0-1.73-0.13-2.52-0.4c-0.79-0.27-1.42-0.6-1.87-1.01l0.66-1.22
		c0.44,0.35,1,0.65,1.68,0.9c0.68,0.25,1.4,0.38,2.15,0.38c1.03,0,1.76-0.17,2.21-0.51c0.45-0.34,0.68-0.79,0.68-1.36
		c0-0.42-0.13-0.75-0.38-0.99c-0.25-0.24-0.58-0.42-0.99-0.54c-0.41-0.12-0.87-0.23-1.37-0.32s-1.01-0.19-1.51-0.3
		c-0.5-0.12-0.95-0.29-1.36-0.51s-0.74-0.53-0.99-0.92s-0.38-0.91-0.38-1.56c0-0.62,0.16-1.18,0.49-1.67s0.81-0.88,1.45-1.16
		s1.41-0.42,2.33-0.42c0.7,0,1.39,0.1,2.09,0.29c0.7,0.2,1.27,0.45,1.72,0.77l-0.63,1.24c-0.48-0.35-0.99-0.6-1.54-0.75
		c-0.55-0.15-1.09-0.23-1.64-0.23c-0.97,0-1.68,0.18-2.14,0.53c-0.46,0.36-0.69,0.81-0.69,1.36c0,0.43,0.13,0.77,0.38,1.02
		s0.59,0.44,1,0.58c0.42,0.14,0.87,0.25,1.37,0.34c0.5,0.09,1,0.19,1.5,0.32s0.96,0.29,1.37,0.5s0.75,0.51,1,0.89
		c0.25,0.38,0.38,0.89,0.38,1.51c0,0.67-0.17,1.24-0.52,1.73c-0.35,0.49-0.85,0.86-1.52,1.13
		C644.49,110.58,643.68,110.71,642.74,110.71z"/>
	<path class="st4" d="M661.76,110.73c-1.08,0-2.08-0.19-2.99-0.58c-0.92-0.38-1.71-0.92-2.38-1.62c-0.67-0.69-1.19-1.51-1.57-2.45
		c-0.38-0.94-0.56-1.97-0.56-3.08c0-1.11,0.19-2.14,0.56-3.08c0.38-0.94,0.9-1.76,1.58-2.45c0.68-0.69,1.47-1.23,2.39-1.62
		c0.92-0.38,1.91-0.58,2.99-0.58c1.04,0,2.01,0.18,2.93,0.55c0.92,0.37,1.69,0.92,2.32,1.66l-0.96,1.02
		c-0.59-0.64-1.24-1.1-1.95-1.38c-0.71-0.28-1.48-0.42-2.29-0.42c-0.86,0-1.66,0.16-2.4,0.47c-0.74,0.31-1.38,0.75-1.93,1.32
		c-0.55,0.57-0.97,1.24-1.28,2s-0.46,1.6-0.46,2.51c0,0.91,0.15,1.75,0.46,2.51s0.73,1.43,1.28,2c0.55,0.57,1.19,1.01,1.93,1.32
		c0.74,0.31,1.54,0.47,2.4,0.47c0.82,0,1.58-0.14,2.29-0.43c0.71-0.29,1.36-0.75,1.95-1.39l0.96,1.02c-0.63,0.74-1.4,1.29-2.32,1.67
		C663.8,110.54,662.82,110.73,661.76,110.73z"/>
	<path class="st4" d="M675.46,99.1c0.87,0,1.64,0.18,2.31,0.53c0.66,0.36,1.18,0.89,1.56,1.62c0.38,0.72,0.56,1.64,0.56,2.74v6.62
		h-1.46v-6.47c0-1.2-0.28-2.11-0.85-2.72c-0.57-0.61-1.36-0.92-2.39-0.92c-0.77,0-1.43,0.16-2,0.49c-0.57,0.33-1,0.8-1.31,1.41
		c-0.31,0.62-0.46,1.36-0.46,2.22v5.99h-1.46V94.49h1.46v7.84l-0.29-0.59c0.34-0.83,0.89-1.47,1.64-1.94
		C673.52,99.33,674.42,99.1,675.46,99.1z"/>
	<path class="st4" d="M688.39,110.71c-1.12,0-2.1-0.25-2.95-0.75c-0.85-0.5-1.51-1.19-1.99-2.06c-0.48-0.88-0.72-1.88-0.72-3.01
		s0.23-2.13,0.69-3c0.46-0.87,1.09-1.55,1.89-2.05c0.8-0.5,1.7-0.75,2.7-0.75c1.01,0,1.91,0.24,2.7,0.73
		c0.79,0.48,1.4,1.17,1.85,2.04c0.45,0.88,0.68,1.89,0.68,3.03c0,0.07,0,0.15-0.01,0.23c-0.01,0.08-0.01,0.16-0.01,0.25h-9.37v-1.15
		h8.59l-0.57,0.46c0-0.83-0.17-1.56-0.5-2.2c-0.33-0.64-0.79-1.15-1.36-1.51c-0.57-0.36-1.24-0.54-1.99-0.54
		c-0.74,0-1.4,0.18-1.99,0.54c-0.59,0.36-1.05,0.87-1.37,1.52c-0.33,0.65-0.49,1.4-0.49,2.24v0.24c0,0.87,0.18,1.63,0.54,2.29
		c0.36,0.66,0.87,1.17,1.52,1.54s1.39,0.55,2.22,0.55c0.66,0,1.27-0.12,1.83-0.37s1.06-0.62,1.47-1.13l0.82,1
		c-0.48,0.61-1.08,1.07-1.79,1.39S689.25,110.71,688.39,110.71z"/>
	<path class="st4" d="M698.97,110.6l-4.78-11.4h1.52l4.39,10.57h-0.72l4.45-10.57h1.43l-4.8,11.4H698.97z"/>
	<path class="st4" d="M710.34,110.71c-0.81,0-1.51-0.14-2.1-0.42s-1.05-0.67-1.36-1.17c-0.31-0.5-0.47-1.07-0.47-1.73
		c0-0.59,0.13-1.13,0.4-1.62c0.27-0.49,0.7-0.88,1.31-1.17c0.61-0.3,1.42-0.44,2.45-0.44h3.71v1.15h-3.67
		c-1.04,0-1.76,0.2-2.16,0.59c-0.4,0.39-0.6,0.88-0.6,1.45c0,0.65,0.24,1.17,0.72,1.56s1.15,0.59,2.01,0.59
		c0.82,0,1.53-0.2,2.12-0.6c0.59-0.4,1.03-0.97,1.3-1.73l0.33,1.06c-0.27,0.75-0.75,1.35-1.42,1.8
		C712.22,110.49,711.37,110.71,710.34,110.71z M714.05,110.6v-2.52l-0.06-0.41v-4.21c0-0.97-0.26-1.71-0.77-2.24
		c-0.51-0.52-1.27-0.78-2.29-0.78c-0.7,0-1.36,0.12-1.99,0.37s-1.16,0.57-1.6,0.98l-0.66-1.15c0.55-0.49,1.2-0.87,1.97-1.14
		s1.57-0.4,2.42-0.4c1.39,0,2.47,0.37,3.23,1.1c0.76,0.73,1.14,1.84,1.14,3.33v7.08H714.05z"/>
	<path class="st4" d="M719.4,110.6V94.49h1.46v16.11H719.4z"/>
	<path class="st4" d="M725.65,96.69c-0.3,0-0.55-0.11-0.76-0.33c-0.21-0.22-0.31-0.48-0.31-0.78c0-0.3,0.1-0.56,0.31-0.77
		c0.21-0.21,0.46-0.31,0.76-0.31c0.3,0,0.55,0.1,0.76,0.3c0.21,0.2,0.31,0.46,0.31,0.76c0,0.32-0.1,0.59-0.3,0.8
		C726.22,96.58,725.97,96.69,725.65,96.69z M724.92,110.6V99.2h1.46v11.4H724.92z"/>
	<path class="st4" d="M735,110.71c-1.12,0-2.1-0.25-2.95-0.75c-0.85-0.5-1.51-1.19-1.99-2.06c-0.48-0.88-0.72-1.88-0.72-3.01
		s0.23-2.13,0.69-3c0.46-0.87,1.09-1.55,1.89-2.05c0.8-0.5,1.7-0.75,2.7-0.75c1.01,0,1.91,0.24,2.7,0.73
		c0.79,0.48,1.4,1.17,1.85,2.04c0.45,0.88,0.68,1.89,0.68,3.03c0,0.07,0,0.15-0.01,0.23c-0.01,0.08-0.01,0.16-0.01,0.25h-9.37v-1.15
		h8.59l-0.57,0.46c0-0.83-0.17-1.56-0.5-2.2c-0.33-0.64-0.79-1.15-1.36-1.51c-0.57-0.36-1.24-0.54-1.99-0.54
		c-0.74,0-1.4,0.18-1.99,0.54c-0.59,0.36-1.05,0.87-1.37,1.52c-0.33,0.65-0.49,1.4-0.49,2.24v0.24c0,0.87,0.18,1.63,0.54,2.29
		c0.36,0.66,0.87,1.17,1.52,1.54s1.39,0.55,2.22,0.55c0.66,0,1.27-0.12,1.83-0.37s1.06-0.62,1.47-1.13l0.82,1
		c-0.48,0.61-1.08,1.07-1.79,1.39S735.86,110.71,735,110.71z"/>
	<path class="st4" d="M742.81,110.6V99.2h1.39v3.1l-0.14-0.54c0.3-0.87,0.81-1.53,1.52-1.99c0.71-0.46,1.59-0.68,2.64-0.68v1.5
		c-0.05,0-0.11,0-0.16-0.01c-0.05-0.01-0.11-0.01-0.16-0.01c-1.13,0-2.02,0.37-2.66,1.1c-0.64,0.73-0.96,1.77-0.96,3.12v5.82H742.81
		z"/>
</g>
<g>
	<path class="st4" d="M180.12,88.44c0,7.8-5.03,14.3-13.03,14.3c-8,0-13.03-6.51-13.03-14.3s5.03-14.3,13.03-14.3
		C175.08,74.13,180.12,80.64,180.12,88.44z M160.84,88.44c0,4.54,2.49,7.12,6.25,7.12c3.76,0,6.25-2.58,6.25-7.12
		c0-4.54-2.49-7.12-6.25-7.12C163.33,81.31,160.84,83.89,160.84,88.44z"/>
	<path class="st4" d="M184.25,114.18V88.49c0-7.96,5.19-14.36,12.71-14.36c7.42,0,12.61,6.39,12.61,14.36
		c0,7.35-5.03,14.25-12.29,14.25c-1.38,0-2.75-0.39-4.08-0.79v-7.57c1.06,0.5,2.17,0.84,3.65,0.84c3.44,0,5.93-2.8,5.93-6.79
		s-2.49-6.79-5.72-6.79c-3.55,0-6.04,2.8-6.04,6.79v25.75H184.25z"/>
</g>
<g>
	<path class="st3" d="M214.79,91.34c0-2.54,0-2.87-1.66-4.04l-0.55-0.39c-0.25-0.26-0.25-0.98,0.06-1.17
		c1.6-0.72,4.49-2.28,6.09-3.52c0.37,0,0.62,0.13,0.74,0.46c-0.12,1.17-0.25,2.15-0.25,3c0,0.46,0.12,0.85,0.55,0.85
		c0.8-0.39,4.67-3.06,8.61-3.06c6.21,0,10.21,5.34,10.21,11.92c0,9.06-6.27,15.57-15.01,15.57c-1.11,0-2.83-0.13-3.38-0.26
		c-0.55,0.13-0.86,0.46-0.86,1.82v6.84c0,4.63,0.12,5.21,2.34,5.54l2.4,0.33c0.43,0.33,0.31,1.43-0.12,1.63
		c-2.95-0.13-4.74-0.2-6.89-0.2c-2.21,0-4.06,0.07-5.78,0.2c-0.43-0.2-0.55-1.3-0.12-1.63l1.29-0.2c2.28-0.33,2.34-0.98,2.34-5.67
		V91.34z M219.34,103.46c0,2.08,0.62,2.87,1.85,3.91c1.23,0.98,3.14,1.43,4.43,1.43c5.04,0,8-4.95,8-11.73
		c0-5.21-2.77-10.49-8.3-10.49c-2.65,0-4.55,1.04-5.23,1.82c-0.55,0.72-0.74,1.69-0.74,3.84V103.46z"/>
	<path class="st3" d="M248.74,93.36c-1.6,0-1.66,0.13-1.66,1.76c0,6.58,3.63,12.18,10.21,12.18c2.03,0,3.75-0.65,5.66-3.19
		c0.61-0.2,1.05,0.2,1.11,0.78c-2.03,4.43-6.46,6.06-9.66,6.06c-4,0-7.13-1.82-8.92-4.3c-1.85-2.54-2.58-5.6-2.58-8.47
		c0-8.01,4.98-14.72,12.36-14.72c5.29,0,8.73,3.84,8.73,7.75c0,0.91-0.12,1.43-0.25,1.69c-0.18,0.39-1.05,0.46-3.63,0.46H248.74z
		 M252.55,91.4c4.55,0,5.9-0.26,6.4-0.65c0.18-0.13,0.37-0.39,0.37-1.24c0-1.83-1.17-4.11-4.74-4.11c-3.63,0-6.77,3.52-6.83,5.67
		c0,0.13,0,0.33,0.43,0.33H252.55z"/>
	<path class="st3" d="M274.88,100.46c0,4.5,1.05,7.49,5.72,7.49c1.66,0,3.63-0.72,4.98-1.96c0.8-0.78,1.23-1.76,1.23-3.78V91.53
		c0-4.24-0.43-4.37-2.28-5.15l-0.8-0.33c-0.43-0.26-0.43-1.17,0.06-1.43c2.46-0.07,5.84-0.52,7.2-1.17c0.31,0.06,0.49,0.2,0.55,0.46
		c-0.12,1.24-0.18,3.26-0.18,5.67v10.95c0,5.15,0.18,7.1,1.91,7.1c0.74,0,1.54-0.13,2.4-0.33c0.37,0.33,0.43,1.63-0.06,1.89
		c-2.4,0.52-5.97,1.17-8.06,2.41c-0.31,0-0.62-0.2-0.74-0.46v-2.67c0-0.59-0.18-0.91-0.55-0.91c-1.85,1.24-4.86,3.39-8.49,3.39
		c-5.41,0-7.44-2.87-7.44-8.14V91.92c0-4.1,0-4.69-1.85-5.54l-0.74-0.33c-0.37-0.33-0.31-1.24,0.12-1.43
		c2.83-0.07,5.23-0.65,6.58-1.17c0.37,0.06,0.55,0.2,0.62,0.46c-0.12,1.11-0.18,2.48-0.18,5.67V100.46z"/>
	<path class="st3" d="M302.63,91.34c0-2.54,0-2.87-1.66-4.04l-0.55-0.39c-0.25-0.26-0.25-0.98,0.06-1.17
		c1.41-0.52,4.67-2.22,6.21-3.19c0.31,0.06,0.49,0.2,0.49,0.46v3.78c0,0.33,0.06,0.52,0.18,0.59c2.15-1.89,4.49-3.91,6.77-3.91
		c1.54,0,2.77,1.04,2.77,2.61c0,2.15-1.66,3-2.65,3c-0.62,0-0.92-0.2-1.35-0.46c-0.92-0.65-1.85-1.04-2.71-1.04
		c-0.98,0-1.72,0.59-2.21,1.3c-0.61,0.91-0.8,2.8-0.8,5.02v8.86c0,4.69,0.12,5.47,2.46,5.67l2.21,0.2c0.43,0.33,0.31,1.43-0.12,1.63
		c-2.89-0.13-4.67-0.2-6.83-0.2c-2.21,0-4.06,0.07-5.66,0.2c-0.43-0.2-0.55-1.3-0.12-1.63l1.17-0.2c2.28-0.39,2.34-0.98,2.34-5.67
		V91.34z"/>
</g>
<g>
	<defs>
		<path id="SVGID_00000123425408802233710420000003709992858840480904_" d="M447.93,110.77L447.93,110.77
			c2.94,0,5.33-2.39,5.33-5.33v-0.8c0-2.94-2.39-5.33-5.33-5.33l0,0c-2.94,0-5.33,2.39-5.33,5.33v0.8
			C442.6,108.38,444.99,110.77,447.93,110.77z"/>
	</defs>
	<clipPath id="SVGID_00000142871386572213011450000017971326713933537955_">
		<use xlink:href="#SVGID_00000123425408802233710420000003709992858840480904_"  style="overflow:visible;"/>
	</clipPath>
	<path style="clip-path:url(#SVGID_00000142871386572213011450000017971326713933537955_);fill:#F18700;" d="M447.93,110.77
		c2.94,0,5.33-2.57,5.33-5.73s-2.39-5.73-5.33-5.73s-5.33,2.57-5.33,5.73S444.99,110.77,447.93,110.77"/>
</g>
<g>
	<defs>
		<rect id="SVGID_00000139987281303880692760000010197542741083249793_" x="633.09" y="13.03" width="107.54" height="63.02"/>
	</defs>
	<clipPath id="SVGID_00000017493817608946824010000005264318193961770158_">
		<use xlink:href="#SVGID_00000139987281303880692760000010197542741083249793_"  style="overflow:visible;"/>
	</clipPath>
	<path style="clip-path:url(#SVGID_00000017493817608946824010000005264318193961770158_);fill:#F18700;" d="M638.16,49.23
		c2.8,0,5.07-2.27,5.07-5.07c0-2.8-2.27-5.07-5.07-5.07s-5.07,2.27-5.07,5.07C633.09,46.96,635.36,49.23,638.16,49.23"/>
	<path style="clip-path:url(#SVGID_00000017493817608946824010000005264318193961770158_);fill:#F9B34B;" d="M703.62,23.17
		c2.8,0,5.07-2.27,5.07-5.07c0-2.8-2.27-5.07-5.07-5.07s-5.07,2.27-5.07,5.07C698.55,20.9,700.82,23.17,703.62,23.17"/>
	<path style="clip-path:url(#SVGID_00000017493817608946824010000005264318193961770158_);fill:#4E7889;" d="M724.65,76.05
		c8.82,0,15.97-7.15,15.97-15.97s-7.15-15.97-15.97-15.97s-15.97,7.15-15.97,15.97S715.83,76.05,724.65,76.05"/>
	<path style="clip-path:url(#SVGID_00000017493817608946824010000005264318193961770158_);fill:#0090B8;" d="M682.66,53.66
		c5.57,0,10.09-4.52,10.09-10.09s-4.52-10.09-10.09-10.09c-5.57,0-10.09,4.52-10.09,10.09S677.08,53.66,682.66,53.66"/>
</g>
<circle class="st1" cx="20.52" cy="80.01" r="13.78"/>
</svg>
