<?xml version="1.0" encoding="utf-8"?>
<!-- Generator: Adobe Illustrator 27.8.0, SVG Export Plug-In . SVG Version: 6.00 Build 0)  -->
<svg version="1.1" id="Calque_1" xmlns="http://www.w3.org/2000/svg" xmlns:xlink="http://www.w3.org/1999/xlink" x="0px" y="0px"
	 viewBox="0 0 150 150" style="enable-background:new 0 0 150 150;" xml:space="preserve">
<style type="text/css">
	.st0{fill:#0065A9;}
	.st1{fill:#007ACC;}
	.st2{fill:#1F9CF0;}
	.st3{fill-rule:evenodd;clip-rule:evenodd;fill:url(#SVGID_1_);}
</style>
<g transform="matrix(1.05404 0 0 1.05404 145.165 65.0823)">
	<g>
		<path class="st0" d="M-19-30.8L-40-40.9c-2.5-1.2-5.4-0.7-7.3,1.2l-69.1,63c-1.8,1.7-1.8,4.6,0,6.3l5.6,5.1
			c1.5,1.4,3.8,1.5,5.5,0.2l83.2-63.1c2.8-2.1,6.8-0.2,6.8,3.4V-25C-15.3-27.5-16.7-29.7-19-30.8L-19-30.8z"/>
		<path class="st1" d="M-19,49.5L-40,59.7c-2.5,1.2-5.4,0.7-7.3-1.2l-69.1-62.9c-1.8-1.7-1.8-4.6,0-6.3l5.6-5.1
			c1.5-1.4,3.8-1.5,5.5-0.2l83.2,63c2.8,2.1,6.8,0.2,6.8-3.4v0.2C-15.3,46.2-16.7,48.4-19,49.5L-19,49.5z"/>
		<path class="st2" d="M-40,59.7c-2.5,1.2-5.4,0.7-7.3-1.2c2.4,2.4,6.4,0.7,6.4-2.6v-92.9c0-3.3-4-5-6.4-2.6
			c1.9-1.9,4.9-2.4,7.3-1.2L-19-30.8c2.2,1.1,3.6,3.3,3.6,5.8v68.8c0,2.5-1.4,4.7-3.6,5.8L-40,59.7z"/>
	</g>
	
		<linearGradient id="SVGID_1_" gradientUnits="userSpaceOnUse" x1="-391.6373" y1="802.6952" x2="-391.2372" y2="802.6952" gradientTransform="matrix(0 298.2402 298.2402 0 -239462.5625 116760.4219)">
		<stop  offset="0" style="stop-color:#FFFFFF;stop-opacity:0.25"/>
		<stop  offset="1" style="stop-color:#FFFFFF;stop-opacity:0"/>
	</linearGradient>
	<path class="st3" d="M-45.2,59.9c1.7,0.7,3.5,0.6,5-0.2l21.1-10.2c2.2-1.1,3.6-3.3,3.6-5.8V-25c0-2.5-1.4-4.7-3.6-5.8l-21.1-10.2
		c-2.1-1-4.6-0.7-6.5,0.6c-0.2,0.2-0.5,0.4-0.7,0.7L-87.7-2.9l-17.6-13.4c-1.7-1.2-4-1.2-5.5,0.2l-5.6,5.1c-1.9,1.7-1.9,4.6,0,6.3
		l15.3,13.9l-15.3,14c-1.8,1.7-1.8,4.6,0,6.3l5.6,5.1c1.5,1.4,3.8,1.5,5.5,0.2l17.6-13.4l40.3,36.8C-46.7,59.1-46,59.6-45.2,59.9
		L-45.2,59.9z M-40.9-13.8L-71.6,9.4l30.6,23.2C-40.9,32.6-40.9-13.8-40.9-13.8z"/>
</g>
</svg>
