<?xml version="1.0" encoding="utf-8"?>
<!-- Generator: Adobe Illustrator 27.8.0, SVG Export Plug-In . SVG Version: 6.00 Build 0)  -->
<svg version="1.1" id="Calque_1" xmlns="http://www.w3.org/2000/svg" xmlns:xlink="http://www.w3.org/1999/xlink" x="0px" y="0px"
	 viewBox="0 0 150 150" style="enable-background:new 0 0 150 150;" xml:space="preserve">
<style type="text/css">
	.st0{fill:#FF6C37;}
	.st1{fill:#FFFFFF;}
</style>
<g>
	<path class="st0" d="M139.5,83.3c4.5-35.6-20.6-68.2-56.1-72.7S15.1,31.1,10.5,66.7s20.6,68.2,56.1,72.8
		C102.3,144,134.9,118.9,139.5,83.3z"/>
	<g transform="translate(50.181225, 45.198924)">
		<path class="st1" d="M48.3,6.5L20.9,34l-7.7-7.7C40.1-0.7,42.8,1.6,48.3,6.5L48.3,6.5z"/>
		<path class="st0" d="M20.9,34.6c-0.2,0-0.3-0.1-0.5-0.2l-7.8-7.7c-0.3-0.3-0.3-0.6,0-0.9C40-1.7,42.9,0.9,48.7,6.1
			c0.1,0.1,0.2,0.3,0.2,0.5c0,0.2-0.1,0.3-0.2,0.5L21.2,34.4C21.2,34.5,21,34.6,20.9,34.6z M14,26.2l6.8,6.8L47.3,6.6
			C42.5,2.3,39.2,1,14,26.2L14,26.2z"/>
		<path class="st1" d="M28.7,41.8l-7.5-7.5L48.7,6.9C56,14.3,45,26.4,28.7,41.8z"/>
		<path class="st0" d="M28.7,42.5c-0.2,0-0.3-0.1-0.5-0.2l-7.5-7.5c-0.1-0.1-0.1-0.3-0.1-0.5s0.1-0.3,0.2-0.5L48.3,6.5
			c0.3-0.3,0.6-0.3,0.9,0c1.7,1.6,2.6,3.8,2.5,6c-0.1,7.2-8.3,16.4-22.5,29.8C29,42.4,28.8,42.5,28.7,42.5L28.7,42.5z M22.2,34.4
			c4.2,4.2,5.9,5.9,6.6,6.6c10.9-10.4,21.5-21.1,21.6-28.4c0.1-1.7-0.6-3.4-1.7-4.7L22.2,34.4z"/>
		<path class="st1" d="M13.3,26.4l5.5,5.5c0.1,0.1,0.1,0.3,0,0.4c-0.1,0.1-0.1,0.1-0.1,0.1L7.2,34.9C6.6,34.9,6.1,34.5,6,34
			c-0.1-0.3,0.1-0.6,0.3-0.8l6.6-6.6C13,26.4,13.2,26.3,13.3,26.4z"/>
		<path class="st0" d="M7,35.5c-1,0-1.7-0.8-1.7-1.8c0-0.5,0.2-0.9,0.5-1.2l6.6-6.6c0.4-0.3,0.9-0.3,1.3,0l5.5,5.5
			c0.4,0.3,0.4,0.9,0,1.3c-0.1,0.1-0.3,0.2-0.5,0.3L7.4,35.5C7.3,35.5,7.1,35.5,7,35.5L7,35.5z M13.1,27.1l-6.4,6.4
			c-0.1,0.1-0.2,0.3-0.1,0.5c0.1,0.2,0.3,0.3,0.5,0.2l10.7-2.3L13.1,27.1z"/>
		<path class="st1" d="M62.8-8.7c-4.2-4-10.9-3.9-14.9,0.3c-4,4.2-3.9,10.9,0.3,14.9C51.7,9.8,56.9,10.4,61,8l-7.4-7.4L62.8-8.7z"/>
		<path class="st0" d="M55.5,10.1c-6.2,0-11.2-5-11.2-11.2s5-11.2,11.2-11.2c2.9,0,5.7,1.1,7.7,3.1c0.1,0.1,0.2,0.3,0.2,0.5
			c0,0.2-0.1,0.3-0.2,0.5l-8.8,8.8l6.9,6.9c0.3,0.3,0.3,0.6,0,0.9c-0.1,0.1-0.1,0.1-0.1,0.1C59.5,9.5,57.5,10.1,55.5,10.1z
			 M55.5-10.9c-5.5,0-9.9,4.4-9.8,9.9c0,5.5,4.4,9.9,9.9,9.8c1.5,0,3-0.3,4.4-1L53.1,1c-0.1-0.1-0.2-0.3-0.2-0.5s0.1-0.3,0.2-0.5
			l8.7-8.7C60-10.1,57.8-10.9,55.5-10.9L55.5-10.9z"/>
		<path class="st1" d="M63-8.5l-0.1-0.1l-9.3,9.2l7.3,7.3c0.7-0.5,1.4-1,2-1.6C67.1,2.2,67.1-4.4,63-8.5L63-8.5z"/>
		<path class="st0" d="M61,8.6c-0.2,0-0.3-0.1-0.5-0.2L53.1,1c-0.1-0.1-0.2-0.3-0.2-0.5s0.1-0.3,0.2-0.5l9.2-9.2
			c0.3-0.3,0.6-0.3,0.9,0L63.4-9c4.4,4.4,4.4,11.4,0.1,15.8c-0.6,0.6-1.4,1.2-2.1,1.7C61.1,8.5,61,8.6,61,8.6L61,8.6z M54.5,0.6
			L61,7.1c0.5-0.3,1-0.8,1.4-1.2c3.7-3.7,3.9-9.7,0.3-13.6L54.5,0.6z"/>
		<path class="st1" d="M49.4,7.7c-1.6-1.6-4.1-1.6-5.7,0L19.2,32.2l4.1,4.1l25.9-22.7c1.7-1.4,1.8-4,0.4-5.7
			C49.5,7.8,49.4,7.8,49.4,7.7L49.4,7.7z"/>
		<path class="st0" d="M23.3,36.9c-0.2,0-0.3-0.1-0.5-0.2l-4.1-4.1c-0.3-0.3-0.3-0.6,0-0.9L43.2,7.3c1.8-1.8,4.7-1.8,6.6,0
			s1.8,4.7,0,6.6c-0.1,0.1-0.1,0.1-0.2,0.2L23.6,36.8C23.6,36.9,23.5,36.9,23.3,36.9L23.3,36.9z M20.1,32.2l3.2,3.2L48.8,13
			c1.4-1.2,1.6-3.3,0.4-4.7c-1.2-1.4-3.3-1.6-4.7-0.4C44.4,8,44.3,8,44.2,8.1L20.1,32.2z"/>
		<path class="st1" d="M0.4,60.1c-0.3,0.1-0.4,0.4-0.3,0.6l1.1,4.7c0.3,0.6-0.1,1.4-0.8,1.6c-0.5,0.2-1.1,0-1.4-0.4l-7.1-7.1
			l23.3-23.3l8.1,0.1l5.5,5.5C27.4,42.9,19.5,50.5,0.4,60.1L0.4,60.1z"/>
		<path class="st0" d="M-0.1,67.7c-0.5,0-1-0.2-1.4-0.6L-8.5,60c-0.1-0.1-0.2-0.3-0.2-0.5c0-0.2,0.1-0.3,0.2-0.5l23.3-23.3
			c0.1-0.1,0.3-0.2,0.5-0.2l8.1,0.1c0.2,0,0.3,0.1,0.5,0.2l5.5,5.5c0.1,0.1,0.2,0.3,0.2,0.5s-0.1,0.3-0.3,0.5l-0.5,0.4
			c-6.9,6-16.2,12.1-27.9,17.9l1.1,4.6c0.2,0.8-0.2,1.8-1,2.2C0.6,67.6,0.3,67.7-0.1,67.7z M-7.2,59.6l6.7,6.6
			c0.2,0.3,0.6,0.5,0.9,0.3c0.3-0.2,0.5-0.6,0.3-0.9l-1.1-4.7c-0.1-0.6,0.1-1.1,0.6-1.4C11.7,53.7,21,47.7,27.8,41.8L23,37l-7.5-0.1
			L-7.2,59.6z"/>
		<path class="st1" d="M-13.7,65.2l5.6-5.6l8.3,8.3L-13.1,67c-0.6-0.1-1-0.6-0.9-1.2C-14,65.5-13.9,65.3-13.7,65.2L-13.7,65.2z"/>
		<path class="st0" d="M0.2,68.5l-13.3-0.9c-1-0.1-1.6-0.9-1.6-1.9c0.1-0.4,0.2-0.8,0.5-1l5.6-5.6c0.3-0.3,0.6-0.3,0.9,0l8.3,8.3
			c0.2,0.2,0.3,0.5,0.1,0.7C0.6,68.3,0.4,68.5,0.2,68.5L0.2,68.5z M-8.1,60.5l-5.1,5.1c-0.2,0.1-0.2,0.5,0,0.6
			c0.1,0.1,0.1,0.1,0.3,0.1l11.5,0.8L-8.1,60.5z"/>
		<path class="st0" d="M12.9,39.2c-0.4,0-0.6-0.3-0.6-0.6c0-0.2,0.1-0.3,0.2-0.5l6.3-6.3c0.3-0.3,0.6-0.3,0.9,0l4.1,4.1
			c0.2,0.2,0.3,0.4,0.2,0.6c-0.1,0.2-0.3,0.4-0.5,0.5L13,39.2C12.9,39.2,12.9,39.2,12.9,39.2L12.9,39.2z M19.2,33.2l-4.3,4.3l7-1.5
			L19.2,33.2z"/>
		<path class="st1" d="M23.2,36.4L16,37.9c-0.5,0.1-1-0.2-1.2-0.7c-0.1-0.3,0-0.6,0.3-0.9l4-4L23.2,36.4z"/>
		<path class="st0" d="M15.9,38.6c-0.9,0-1.6-0.7-1.6-1.6c0-0.5,0.2-0.8,0.5-1.2l4-4c0.3-0.3,0.6-0.3,0.9,0l4.1,4.1
			c0.2,0.2,0.3,0.4,0.2,0.6c-0.1,0.2-0.3,0.4-0.5,0.5l-7.1,1.6C16.1,38.6,16,38.6,15.9,38.6L15.9,38.6z M19.2,33.2l-3.5,3.5
			c-0.1,0.1-0.1,0.3-0.1,0.4c0.1,0.1,0.2,0.2,0.4,0.2l6-1.3L19.2,33.2z"/>
		<path class="st0" d="M63-2.2c-0.1-0.4-0.6-0.6-1-0.5c-0.4,0.1-0.6,0.6-0.5,1c0,0.1,0.1,0.1,0.1,0.2c0.4,0.8,0.3,1.8-0.3,2.5
			c-0.3,0.3-0.2,0.8,0.1,1c0.3,0.3,0.8,0.2,1-0.1C63.5,0.6,63.7-0.9,63-2.2L63-2.2z"/>
	</g>
</g>
</svg>
