<?xml version="1.0" encoding="utf-8"?>
<!-- Generator: Adobe Illustrator 27.8.0, SVG Export Plug-In . SVG Version: 6.00 Build 0)  -->
<svg version="1.1" id="Calque_1" xmlns="http://www.w3.org/2000/svg" xmlns:xlink="http://www.w3.org/1999/xlink" x="0px" y="0px"
	 viewBox="0 0 150 150" style="enable-background:new 0 0 150 150;" xml:space="preserve">
<style type="text/css">
	.st0{fill:#FFFFFF;}
	.st1{fill:#49A32B;}
</style>
<g>
	<path class="st0" d="M74.5,140C39.9,139.8,9.8,111,10,74.5C10.2,39.3,39.4,9.8,75.6,10c35.1,0.2,64.7,29.4,64.4,65.1
		C140.3,110.5,110.5,140.2,74.5,140z M74.5,140C39.9,139.8,9.8,111,10,74.5C10.2,39.3,39.4,9.8,75.6,10
		c35.1,0.2,64.7,29.4,64.4,65.1C140.3,110.5,110.5,140.2,74.5,140z"/>
	<path class="st1" d="M74.6,131.4c-30-0.2-56.2-25.1-56-56.8c0.2-30.5,25.5-56.1,56.9-55.9c30.5,0.2,56.1,25.5,55.9,56.5
		C131.6,105.8,105.8,131.6,74.6,131.4z M74.6,131.4c-30-0.2-56.2-25.1-56-56.8c0.2-30.5,25.5-56.1,56.9-55.9
		c30.5,0.2,56.1,25.5,55.9,56.5C131.6,105.8,105.8,131.6,74.6,131.4z"/>
	<path class="st0" d="M96,75c-0.1,2.7-2.5,4.9-4.8,4.5c0,0,0,0,0,0c-2.6,0-4.6-2.1-4.6-4.6c0.1-2.6,2.2-4.6,4.8-4.6
		C93.9,70.3,96.1,72.5,96,75z M54.8,101c1,0,1.9,0,3,0v7c-6.9,1.2-12.6-0.8-14-6.6c-0.5-2.2-0.8-4.3-0.9-6.5c-0.1-2.3,0.1-4.7-0.1-7
		c-0.5-6.4-1.3-8.6-7.5-8.9v-8c0.4-0.1,0.9-0.2,1.3-0.2c3.4-0.2,4.8-1.2,5.5-4.5c0.3-1.9,0.5-3.8,0.6-5.6c0.3-3.7,0.2-7.4,0.8-11
		c0.9-5.2,4.1-7.7,9.5-8c1.5-0.1,3,0,4.8,0v7.2c-0.7,0.1-1.4,0.2-2,0.1c-4.4-0.1-4.6,1.4-4.9,5c-0.2,2.3,0.1,4.6-0.1,6.8
		c-0.2,2.3-0.5,4.5-0.9,6.7c-0.6,3.2-2.6,5.6-5.4,7.6c5.3,3.5,5.9,8.8,6.3,14.3c0.2,2.9,0.1,5.9,0.4,8.8
		C51.6,100.4,52.4,100.9,54.8,101z M59.3,70.3C59.3,70.3,59.3,70.3,59.3,70.3c2.6,0,4.7,2.1,4.6,4.7c0,0.1,0,0.2,0,0.2
		c-0.1,2.5-2.3,4.4-4.8,4.2c-0.1,0-0.2,0-0.3,0c-2.5-0.1-4.5-2.3-4.4-4.8S56.7,70.2,59.3,70.3z M75.1,70.3c2.8,0,4.6,1.8,4.6,4.5
		c0,2.8-1.7,4.6-4.5,4.6c-2.8,0-4.7-1.8-4.7-4.5c0-0.1,0-0.3,0-0.4C70.7,72.2,72.7,70.2,75.1,70.3z M108.3,66.8
		c0.7,2.8,2.2,3.7,5.1,3.9c0.5,0,1,0.1,1.6,0.2v8c-0.4,0.1-0.7,0.2-1.1,0.3c-3.9,0.2-5.7,1.8-6.1,5.8c-0.3,2.5-0.2,5-0.4,7.5
		c-0.1,2.8-0.3,5.5-0.7,8.2c-1,4.9-4.1,7.4-9.2,7.7c-1.6,0.1-3.3,0-5,0v-7.1c0.9-0.1,1.8-0.1,2.6-0.2c3-0.1,4.1-1.1,4.3-4.1
		c0.2-3.3,0.2-6.6,0.4-9.9c0.2-4.8,1.5-9.1,6-12.1c-2.6-1.8-4.6-4-5.1-7c-0.6-3.6-0.8-7.3-1.2-10.9c-0.2-1.8-0.2-3.7-0.3-5.5
		c-0.2-2-1.5-2.7-3.3-2.7c-1,0-2.1,0-3.4,0v-7c8.4-1.4,14.2,1.4,14.7,9.4c0.2,3.4,0.2,6.8,0.4,10.1
		C107.6,63.2,107.9,65.1,108.3,66.8z"/>
</g>
</svg>
