<?xml version="1.0" encoding="utf-8"?>
<!-- Generator: Adobe Illustrator 27.8.0, SVG Export Plug-In . SVG Version: 6.00 Build 0)  -->
<svg version="1.1" id="Calque_1" xmlns="http://www.w3.org/2000/svg" xmlns:xlink="http://www.w3.org/1999/xlink" x="0px" y="0px"
	 viewBox="0 0 150 150" style="enable-background:new 0 0 150 150;" xml:space="preserve">
<style type="text/css">
	.st0{fill:#1ABCFE;}
	.st1{fill:#0ACF83;}
	.st2{fill:#FF7262;}
	.st3{fill:#F24E1E;}
	.st4{fill:#A259FF;}
</style>
<path class="st0" d="M77.4,75c0-10.5,8.5-19,19-19s19,8.5,19,19c0,10.5-8.5,19-19,19l0,0C85.9,94,77.4,85.5,77.4,75z"/>
<path class="st1" d="M39.3,113.1c0-10.5,8.5-19,19-19h19v19c0,10.5-8.5,19-19,19S39.3,123.6,39.3,113.1z"/>
<path class="st2" d="M77.4,17.9V56h19c10.5,0,19-8.5,19-19s-8.5-19-19-19H77.4z"/>
<path class="st3" d="M39.3,36.9c0,10.5,8.5,19,19,19h19V17.9h-19C47.8,17.9,39.3,26.4,39.3,36.9L39.3,36.9z"/>
<path class="st4" d="M39.3,75c0,10.5,8.5,19,19,19h19V56h-19C47.8,56,39.3,64.5,39.3,75L39.3,75z"/>
</svg>
